<?xml version="1.0" standalone="no"?>
<!DOCTYPE svg PUBLIC "-//W3C//DTD SVG 20010904//EN"
 "http://www.w3.org/TR/2001/REC-SVG-20010904/DTD/svg10.dtd">
<svg version="1.0" xmlns="http://www.w3.org/2000/svg"
 width="1338.000000pt" height="554.000000pt" viewBox="0 0 1338.000000 554.000000"
 preserveAspectRatio="xMidYMid meet">

<g transform="translate(0.000000,554.000000) scale(0.100000,-0.100000)"
fill="#000000" stroke="none">
<path d="M180 5531 c-69 -21 -121 -65 -156 -131 -18 -34 -19 -117 -19 -2635
l0 -2600 22 -40 c25 -47 65 -86 110 -109 29 -15 571 -16 6553 -16 5982 0 6524
1 6553 16 45 23 85 62 110 109 l22 40 0 2600 0 2600 -22 40 c-25 47 -64 85
-113 111 -34 18 -214 19 -6535 21 -3575 1 -6511 -2 -6525 -6z m3760 -1651 l0
-160 -34 0 c-32 0 -36 4 -60 55 -27 59 -104 148 -148 171 -20 10 -76 15 -210
17 l-183 2 -3 -264 -2 -263 124 3 c108 4 128 7 153 25 37 28 59 67 76 134 13
51 17 55 46 58 l31 3 0 -261 0 -261 -32 3 c-29 3 -33 7 -43 53 -14 61 -35 103
-68 133 -29 27 -122 45 -218 40 l-64 -3 0 -247 c0 -234 1 -248 21 -275 37 -50
64 -57 234 -57 90 0 172 5 196 12 58 17 104 72 166 197 51 101 54 105 85 105
29 0 33 -3 29 -22 -3 -13 -8 -75 -11 -138 -3 -63 -8 -141 -12 -172 l-6 -58
-543 0 -544 0 0 34 0 33 60 6 c68 6 106 26 121 64 5 14 8 113 7 227 l-3 201
-222 3 -223 2 -27 -42 c-15 -24 -60 -107 -100 -185 -88 -172 -94 -217 -31
-249 16 -8 48 -18 71 -22 38 -7 42 -10 45 -40 l3 -32 -245 0 -246 0 0 35 c0
27 4 35 18 35 43 0 111 33 150 73 22 23 96 138 164 257 197 341 468 827 468
838 0 11 -56 22 -112 22 -37 0 -38 1 -38 35 l0 35 580 0 580 0 0 -160z m1660
-20 l0 -180 -35 0 c-21 0 -35 5 -35 13 0 22 -71 151 -107 195 -48 59 -72 68
-195 76 l-108 7 0 -556 0 -557 28 -28 c27 -27 100 -50 157 -50 22 0 25 -5 25
-35 l0 -35 -310 0 -310 0 0 35 c0 34 1 35 41 35 65 0 128 20 149 48 19 24 20
42 20 584 l0 559 -107 -7 c-123 -8 -147 -17 -197 -76 -38 -43 -106 -169 -106
-194 0 -9 -12 -14 -35 -14 l-35 0 0 180 0 180 580 0 580 0 0 -180z m1000 145
c0 -31 -3 -35 -26 -35 -48 0 -115 -22 -129 -43 -12 -17 -15 -66 -15 -254 l0
-233 310 0 310 0 0 226 0 226 -28 28 c-27 26 -85 50 -124 50 -14 0 -18 8 -18
35 l0 35 276 0 275 0 -3 -32 c-3 -32 -5 -33 -58 -41 -63 -9 -97 -28 -110 -63
-6 -15 -10 -234 -10 -530 0 -551 0 -549 57 -573 15 -6 48 -15 73 -19 42 -7 45
-10 48 -40 l3 -32 -275 0 -276 0 0 35 c0 34 1 35 40 35 51 0 105 22 119 48 7
13 11 112 11 276 l0 256 -310 0 -310 0 0 -254 c0 -235 1 -255 19 -278 20 -25
79 -48 125 -48 23 0 26 -4 26 -35 l0 -35 -275 0 -275 0 0 35 c0 35 0 35 44 35
23 0 57 5 75 11 62 22 61 16 61 576 0 482 -1 510 -19 539 -20 32 -88 64 -138
64 -20 0 -23 5 -23 35 l0 35 275 0 275 0 0 -35z m2380 -125 l0 -160 -35 0
c-31 0 -36 4 -55 47 -30 68 -89 141 -136 169 -38 22 -55 25 -228 31 l-186 6 0
-267 0 -268 124 4 c108 3 128 6 153 24 35 27 64 75 79 133 10 41 14 46 43 49
l31 3 0 -260 0 -261 -30 0 c-24 0 -31 5 -36 28 -13 62 -36 122 -55 147 -36 44
-73 56 -196 62 l-114 6 3 -261 3 -262 26 -26 c23 -22 40 -28 115 -36 95 -10
241 -3 312 14 58 14 107 72 168 198 47 96 50 100 82 100 32 0 33 -1 28 -32 -3
-18 -8 -82 -11 -143 -3 -60 -8 -134 -12 -162 l-5 -53 -549 0 -549 0 0 34 0 33
60 6 c68 6 106 26 120 63 13 34 13 1014 0 1048 -13 35 -49 56 -119 69 -60 11
-61 12 -61 44 l0 33 515 0 515 0 0 -160z m1325 145 c196 -42 295 -159 283
-334 -9 -129 -71 -216 -197 -279 -42 -21 -87 -41 -100 -45 -18 -4 -22 -9 -14
-19 6 -7 89 -120 186 -250 197 -265 237 -303 335 -315 51 -6 52 -6 52 -39 l0
-34 -177 0 -178 1 -99 148 c-54 82 -149 215 -210 297 l-112 149 -69 0 -70 0
-3 -208 c-1 -114 1 -222 6 -239 11 -44 50 -69 119 -77 57 -6 58 -7 61 -38 l3
-33 -280 0 -281 0 0 34 c0 33 0 34 55 38 62 5 106 31 116 69 12 41 10 1000 -2
1041 -12 45 -42 64 -117 74 -51 6 -52 7 -52 40 l0 34 338 0 c259 0 353 -4 407
-15z m-1315 -2353 c0 -11 -16 -26 -45 -40 -53 -26 -56 -20 -13 25 35 37 58 42
58 15z m-5086 -92 c16 -6 27 -6 31 0 14 23 25 6 25 -40 0 -50 -13 -67 -25 -30
-9 29 -54 60 -87 60 -39 0 -84 -46 -93 -93 -17 -87 31 -167 97 -167 50 0 70
19 66 60 -2 27 -8 36 -25 38 -50 7 -19 22 45 21 64 0 66 -1 45 -16 -18 -12
-23 -25 -23 -59 l0 -43 -54 -12 c-72 -16 -122 -5 -162 35 -58 58 -58 152 1
210 43 43 104 57 159 36z m516 -25 c0 -42 -6 -43 -32 -10 -16 21 -28 25 -69
25 l-49 0 0 -60 0 -60 35 0 c27 0 37 6 49 28 15 27 15 26 16 -33 0 -57 -1 -58
-16 -37 -11 15 -25 22 -50 22 -34 0 -34 0 -34 -44 0 -70 5 -76 66 -76 52 0 56
2 75 35 12 19 23 35 25 35 2 0 4 -20 4 -45 l0 -45 -125 0 c-114 0 -157 9 -105
23 19 5 20 14 20 127 0 113 -1 122 -20 127 -50 13 -10 23 95 23 l115 0 0 -35z
m365 26 c11 -5 25 -5 31 0 8 7 13 -5 17 -38 5 -46 -1 -72 -10 -45 -3 7 -16 26
-30 42 -41 50 -109 35 -101 -22 2 -17 20 -31 71 -56 42 -20 72 -41 79 -56 32
-72 -60 -139 -146 -106 -16 6 -27 6 -31 0 -14 -23 -25 -6 -25 40 0 50 13 67
25 30 9 -28 53 -60 85 -60 69 0 78 80 12 106 -101 39 -122 62 -108 119 11 43
79 66 131 46z m515 -33 l0 -43 -26 33 c-18 23 -34 32 -55 32 l-30 0 3 -127 c3
-124 4 -128 26 -131 50 -7 18 -22 -48 -22 -66 0 -98 15 -47 22 21 3 22 7 25
131 l3 127 -30 0 c-21 0 -37 -9 -55 -32 l-26 -33 0 43 0 42 130 0 130 0 0 -42z
m330 37 c0 -3 -11 -10 -25 -15 -25 -9 -25 -11 -25 -130 0 -119 0 -121 25 -130
40 -15 30 -20 -45 -20 -66 0 -98 15 -47 22 21 3 22 6 22 128 0 122 -1 125 -22
128 -51 7 -19 22 47 22 39 0 70 -2 70 -5z m429 -22 c34 -25 61 -79 61 -123 0
-146 -186 -202 -267 -81 -48 71 -20 174 57 214 43 22 111 18 149 -10z m421
-85 l85 -113 3 75 c4 96 -2 118 -36 132 l-27 12 32 4 c18 2 50 2 70 0 l38 -4
-27 -12 -28 -12 0 -136 c0 -104 -3 -135 -12 -132 -7 2 -53 57 -103 123 l-90
118 -3 -84 c-4 -105 2 -127 36 -141 l27 -12 -38 -4 c-20 -2 -52 -2 -70 0 l-32
4 28 12 28 12 -3 117 c-3 111 -4 119 -25 128 -35 15 -27 25 20 25 42 0 42 0
127 -112z m829 88 c17 -15 21 -29 19 -60 -2 -33 -9 -44 -37 -63 -19 -13 -49
-23 -67 -23 l-34 0 0 -55 c0 -48 2 -55 20 -55 11 0 20 -4 20 -10 0 -6 -28 -10
-65 -10 -37 0 -65 4 -65 10 0 6 9 10 20 10 19 0 20 7 20 130 0 107 -3 130 -14
130 -8 0 -18 5 -22 11 -4 8 21 10 89 8 77 -3 99 -8 116 -23z m440 0 c28 -26
28 -79 -1 -106 -12 -11 -28 -20 -35 -20 -7 0 -13 -3 -13 -7 0 -15 102 -123
116 -123 8 0 14 -4 14 -10 0 -5 -17 -10 -39 -10 -36 0 -42 4 -86 65 -61 83
-85 87 -85 14 0 -42 3 -52 20 -56 40 -11 18 -23 -40 -23 -58 0 -80 12 -40 23
19 5 20 14 20 127 0 113 -1 122 -20 127 -11 3 -20 10 -20 15 0 6 37 9 94 6 75
-2 98 -7 115 -22z m391 14 c0 -5 -9 -10 -20 -10 -19 0 -20 -7 -20 -126 0 -117
1 -126 20 -131 41 -11 18 -23 -45 -23 -37 0 -65 4 -65 10 0 6 9 10 20 10 19 0
20 7 20 126 0 117 -1 126 -20 131 -41 11 -18 23 45 23 37 0 65 -4 65 -10z
m300 0 c0 -5 -7 -10 -15 -10 -8 0 -15 -5 -15 -10 0 -23 74 -200 80 -193 12 14
70 167 70 186 0 10 -8 17 -20 17 -11 0 -20 5 -20 10 0 6 25 10 55 10 30 0 55
-4 55 -10 0 -5 -7 -10 -15 -10 -18 0 -36 -34 -91 -170 -23 -57 -46 -106 -51
-107 -5 -2 -33 58 -62 133 -38 98 -58 138 -72 141 -39 11 -17 23 41 23 33 0
60 -4 60 -10z m600 -25 c0 -42 -6 -43 -32 -10 -16 21 -28 25 -69 25 l-49 0 0
-60 0 -60 35 0 c27 0 37 6 49 28 15 27 15 26 16 -33 0 -57 -1 -58 -16 -37 -11
15 -25 22 -50 22 -34 0 -34 0 -34 -44 0 -70 5 -76 66 -76 52 0 56 2 75 35 12
19 23 35 25 35 2 0 4 -20 4 -45 l0 -45 -125 0 c-114 0 -157 9 -105 23 19 5 20
14 20 127 0 113 -1 122 -20 127 -50 13 -10 23 95 23 l115 0 0 -35z m450 -2
l-1 -38 -20 28 c-18 23 -28 27 -70 27 l-49 0 0 -61 0 -60 33 3 c22 2 35 10 42
26 16 37 25 25 25 -33 0 -55 -13 -73 -25 -35 -5 15 -15 20 -41 20 l-35 0 3
-57 3 -58 51 -3 c46 -3 54 0 72 23 11 14 23 31 25 38 8 24 14 1 9 -40 l-4 -43
-124 0 c-76 0 -124 4 -124 10 0 6 9 10 20 10 19 0 20 7 20 126 0 117 -1 126
-20 131 -50 13 -10 23 95 23 l115 0 0 -37z"/>
<path d="M3033 3948 c-6 -7 -83 -142 -171 -300 l-161 -288 205 0 204 0 -2 298
-3 297 -31 3 c-17 2 -36 -3 -41 -10z"/>
<path d="M9938 3965 c-5 -5 -8 -136 -8 -292 l0 -283 88 0 c129 0 184 19 253
89 44 43 61 69 73 110 30 103 15 216 -40 288 -44 58 -114 84 -247 90 -61 3
-115 2 -119 -2z"/>
<path d="M5927 1559 c-43 -25 -62 -141 -32 -199 42 -81 153 -58 171 36 22 117
-58 210 -139 163z"/>
<path d="M7190 1505 c0 -61 1 -65 23 -65 39 0 67 27 67 65 0 41 -22 65 -61 65
l-29 0 0 -65z"/>
<path d="M7620 1505 l0 -65 30 0 c38 0 70 31 70 68 0 37 -28 62 -68 62 l-32 0
0 -65z"/>
</g>
</svg>
